Coordinates
version=1
nRows=11
nColumns=33
inDegrees=yes

Units are S.I. units (second, meters, Newtons, ...)
Angles are in degrees.

endheader
time	ground_thorax_rot_x	ground_thorax_rot_y	ground_thorax_rot_z	ground_thorax_tx	ground_thorax_ty	ground_thorax_tz	clav_prot_r	clav_elev_r	scapula_abduction_r	scapula_elevation_r	scapula_upward_rot_r	scapula_winging_r	shoulder_elv_r	plane_of_elev_r	axial_rot_r	elbow_flexion_r	pro_sup_r	wrist_flex_r	wrist_dev_r	clav_prot_l	clav_elev_l	scapula_abduction_l	scapula_elevation_l	scapula_upward_rot_l	scapula_winging_l	shoulder_elv_l	plane_of_elev_l	axial_rot_l	elbow_flexion_l	pro_sup_l	wrist_flex_l	wrist_dev_l	
7.3900	38.158192	9.572745	10.954006	-167.189938	816.343063	-5.355689	17.257013	38.958481	43.818271	45.000000	-43.978249	2075.298728	-825.588339	144.404769	180.000000	1092.072249	35.861383	20.918381	11.039573	9.808151	-45.000000	-42.392078	45.000000	-28.337159	-624.084187	-646.514839	23.763143	-19.026312	1088.370532	26.199461	9.215597	-23.570711	
7.4000	38.210191	9.397346	10.694058	-163.794814	815.698201	-5.238575	17.420542	39.139038	44.036080	45.000000	-43.505630	2075.410946	-825.711700	144.384672	180.000000	1091.967092	34.579633	20.731883	11.323711	9.697697	-45.000000	-42.710233	45.000000	-27.319291	-624.277719	-646.717764	23.801886	-18.643358	1088.322238	25.365581	9.589710	-23.388488	
7.4100	38.256121	9.198544	10.430762	-160.305604	814.989421	-5.108299	17.556448	39.325925	44.232572	45.000000	-42.955623	2075.534755	-825.857737	144.376211	180.000000	1091.861896	33.439560	20.556216	11.605200	9.594858	-45.000000	-43.043177	45.000000	-26.271324	-624.478314	-646.938066	23.855222	-18.204804	1088.256573	24.644618	9.957060	-23.194457	
7.4200	38.291484	9.000590	10.192898	-156.724457	814.211841	-4.971706	17.621665	39.496145	44.401565	45.000000	-42.362947	2075.668308	-826.017726	144.372151	180.000000	1091.757167	32.477231	20.394282	11.877417	9.521172	-45.000000	-43.378915	45.000000	-25.251473	-624.686148	-647.170477	23.929611	-17.722889	1088.172181	24.073017	10.308424	-22.990602	
7.4300	38.314595	8.800787	9.981778	-153.059610	813.361460	-4.832096	17.651666	39.657303	44.559314	45.000000	-41.760706	2075.801774	-826.197145	144.360456	180.000000	1091.654632	31.706532	20.247247	12.133751	9.465766	-45.000000	-43.711609	45.000000	-24.257425	-624.898607	-647.414712	24.022645	-17.192740	1088.069358	23.668797	10.633788	-22.782781	
7.4400	38.324040	8.609048	9.805833	-149.323399	812.436177	-4.690622	17.660320	39.815817	44.700702	45.000000	-41.169017	2075.936224	-826.387923	144.336663	180.000000	1091.550762	31.117679	20.113486	12.375193	9.414994	-45.000000	-44.034311	45.000000	-23.316511	-625.123608	-647.662733	24.132475	-16.615741	1087.949588	23.431051	10.923467	-22.576243	
7.4500	38.319481	8.426997	9.667203	-145.530056	811.436364	-4.547897	17.638215	39.966761	44.818502	45.000000	-40.583729	2076.075823	-826.588790	144.301803	180.000000	1091.447963	30.693294	19.992834	12.603224	9.367708	-45.000000	-44.333940	45.000000	-22.446101	-625.367269	-647.908968	24.259536	-16.001046	1087.813094	23.355205	11.178079	-22.373517	
7.4600	38.301243	8.254287	9.570798	-141.693529	810.365044	-4.405721	17.587676	40.111738	44.903940	45.000000	-40.002466	2076.227038	-826.791972	144.253135	180.000000	1091.345965	30.414140	19.884552	12.819641	9.322106	-45.000000	-44.583560	45.000000	-21.654563	-625.635496	-648.154501	24.401432	-15.351039	1087.660449	23.430364	11.395872	-22.176391	
7.4700	38.272318	8.086597	9.511880	-137.828216	809.227836	-4.267220	17.512795	40.248230	44.959647	44.999999	-39.414884	2076.393495	-826.997557	144.199376	180.000000	1091.247285	30.258184	19.786916	13.023508	9.266898	-45.000000	-44.773332	45.000000	-20.946814	-625.936369	-648.396876	24.553146	-14.679273	1087.493341	23.646076	11.582965	-21.987191	
7.4800	38.230164	7.915152	9.489464	-133.949206	808.032352	-4.136077	17.439605	40.376792	44.987923	44.999999	-38.833182	2076.596637	-827.189614	144.151115	180.000000	1091.153791	30.201628	19.695994	13.205543	9.202164	-45.000000	-44.895355	45.000000	-20.284902	-626.264883	-648.639204	24.704685	-13.979815	1087.306969	23.991459	11.749782	-21.808841	
7.4900	38.177573	7.724559	9.485531	-130.072735	806.787727	-4.015549	17.385522	40.492625	44.998922	44.999998	-38.249838	2076.856451	-827.359399	144.134157	180.000000	1091.070882	30.215021	19.607092	13.356458	9.114175	-45.000000	-44.964124	45.000000	-19.629177	-626.624187	-648.879000	24.841254	-13.261145	1087.097058	24.460357	11.917084	-21.645769	
